<svg width="25" height="24" viewBox="0 0 25 24" fill="none" xmlns="http://www.w3.org/2000/svg">
<path fill-rule="evenodd" clip-rule="evenodd" d="M11.5164 3.25C10.7428 3.25 10.0975 3.84123 10.0299 4.61189C9.88868 6.22317 9.85294 7.84164 9.9228 9.45693C9.83847 9.46258 9.75415 9.46847 9.66985 9.47462L8.18034 9.5832C7.22829 9.6526 6.69609 10.7142 7.21007 11.5185C8.30625 13.2341 9.7187 14.7254 11.3721 15.9132L11.9689 16.3418C12.4527 16.6894 13.1043 16.6894 13.5882 16.3418L14.1849 15.9132C15.8383 14.7254 17.2508 13.2341 18.347 11.5185C18.861 10.7142 18.3288 9.6526 17.3767 9.5832L15.8872 9.47462C15.8029 9.46847 15.7186 9.46258 15.6342 9.45693C15.7041 7.84164 15.6684 6.22317 15.5271 4.61188C15.4596 3.84123 14.8142 3.25 14.0406 3.25L11.5164 3.25ZM11.46 10.1147C11.3463 8.3275 11.3675 6.53417 11.5236 4.75L14.0335 4.75C14.1895 6.53417 14.2107 8.3275 14.097 10.1147C14.0843 10.3151 14.1524 10.5122 14.2861 10.662C14.4199 10.8117 14.6081 10.9016 14.8086 10.9114C15.132 10.9274 15.4552 10.9471 15.7781 10.9707L16.8599 11.0495C15.9004 12.4628 14.6989 13.6971 13.3098 14.6949L12.7785 15.0765L12.2473 14.6949C10.8582 13.6971 9.65668 12.4628 8.69714 11.0495L9.7789 10.9707C10.1019 10.9471 10.4251 10.9274 10.7484 10.9114C10.949 10.9016 11.1372 10.8117 11.2709 10.662C11.4046 10.5122 11.4728 10.3151 11.46 10.1147Z" fill="white"/>
<path d="M6.52844 17C6.52844 16.5858 6.19266 16.25 5.77844 16.25C5.36423 16.25 5.02844 16.5858 5.02844 17L5.02844 19C5.02844 19.9665 5.81194 20.75 6.77844 20.75L18.7784 20.75C19.7449 20.75 20.5284 19.9665 20.5284 19L20.5284 17C20.5284 16.5858 20.1927 16.25 19.7784 16.25C19.3642 16.25 19.0284 16.5858 19.0284 17L19.0284 19C19.0284 19.1381 18.9165 19.25 18.7784 19.25L6.77844 19.25C6.64037 19.25 6.52844 19.1381 6.52844 19L6.52844 17Z" fill="white"/>
</svg>
