<svg width="39" height="38" viewBox="0 0 39 38" fill="none" xmlns="http://www.w3.org/2000/svg">
<path fill-rule="evenodd" clip-rule="evenodd" d="M23.3409 3.95833C23.3409 3.73972 23.1637 3.5625 22.9451 3.5625L11.8617 3.5625C9.45699 3.5625 7.50757 5.51193 7.50757 7.91667L7.50757 30.0833C7.50757 32.4881 9.45699 34.4375 11.8617 34.4375L27.6951 34.4375C30.0998 34.4375 32.0492 32.4881 32.0492 30.0833L32.0492 14.4828C32.0492 14.2642 31.872 14.087 31.6534 14.087L24.5284 14.087C23.8726 14.087 23.3409 13.5553 23.3409 12.8995L23.3409 3.95833ZM22.995 20.8436C23.5071 20.4339 24.2544 20.5169 24.6641 21.029C25.0738 21.5411 24.9907 22.2884 24.4786 22.6981L20.5299 25.8571C20.3261 26.0238 20.0659 26.1241 19.7823 26.125L19.7785 26.125L19.7685 26.125C19.4897 26.1227 19.2339 26.0243 19.0324 25.8614L15.0783 22.6981C14.5662 22.2884 14.4831 21.5411 14.8928 21.029C15.3025 20.5169 16.0498 20.4339 16.5619 20.8436L18.591 22.4668L18.591 17.0208C18.591 16.365 19.1227 15.8333 19.7785 15.8333C20.4343 15.8333 20.966 16.365 20.966 17.0208L20.966 22.4667L22.995 20.8436Z" fill="white"/>
<path d="M25.7159 4.47155C25.7159 4.17943 26.0209 3.99395 26.2482 4.17744C26.4397 4.332 26.6117 4.51307 26.7586 4.71762L31.5294 11.3643C31.638 11.5156 31.5204 11.712 31.3341 11.712L26.1117 11.712C25.8931 11.712 25.7159 11.5348 25.7159 11.3162L25.7159 4.47155Z" fill="white"/>
</svg>
