<svg width="40" height="41" viewBox="0 0 40 41" fill="none" xmlns="http://www.w3.org/2000/svg">
<path d="M19.0598 32.4583C19.0598 31.7507 19.6055 31.177 20.2786 31.177L30.0286 31.177C30.2529 31.177 30.4348 30.9858 30.4348 30.75L30.4348 10.25C30.4348 10.0141 30.2529 9.82288 30.0286 9.82288L20.2786 9.82288C19.6055 9.82288 19.0598 9.24924 19.0598 8.54163C19.0598 7.83401 19.6055 7.26038 20.2786 7.26038L30.0286 7.26038C31.5991 7.26038 32.8723 8.59886 32.8723 10.25L32.8723 30.75C32.8723 32.4011 31.5991 33.7395 30.0286 33.7395L20.2786 33.7395C19.6055 33.7395 19.0598 33.1659 19.0598 32.4583Z" fill="black"/>
<path d="M6.46606 22.4051C6.46606 23.3486 7.1936 24.1135 8.09106 24.1135L15.982 24.1135C16.0193 24.7206 16.066 25.3273 16.122 25.9333L16.1702 26.4547C16.2486 27.3025 17.1049 27.8102 17.8355 27.4421C20.8059 25.9455 23.4949 23.8976 25.7732 21.3968L25.8219 21.3434C26.2559 20.867 26.2559 20.1157 25.8219 19.6393L25.7732 19.5858C23.4949 17.0851 20.8059 15.0372 17.8355 13.5406C17.1049 13.1725 16.2486 13.6802 16.1702 14.528L16.122 15.0494C16.066 15.6553 16.0193 16.2621 15.982 16.8692L8.09106 16.8692C7.1936 16.8692 6.46606 17.6341 6.46606 18.5776L6.46606 22.4051Z" fill="black"/>
</svg>
