<svg width="30" height="31" viewBox="0 0 30 31" fill="none" xmlns="http://www.w3.org/2000/svg">
<path d="M29.5141 11.8366C28.8008 6.10438 24.2574 1.56102 18.5253 0.847681C17.6575 0.739694 16.9451 1.45896 16.9451 2.33341L16.9451 12.6251C16.9451 13.0623 17.2995 13.4167 17.7367 13.4167L28.0284 13.4167C28.9029 13.4167 29.6221 12.7043 29.5141 11.8366Z" fill="white"/>
<path d="M13.7784 3.12508C6.34557 3.12508 0.320068 9.15058 0.320068 16.5834C0.320068 24.0162 6.34557 30.0417 13.7784 30.0417C21.2112 30.0417 27.2367 24.0162 27.2367 16.5834C27.2367 16.1462 26.8823 15.7917 26.4451 15.7917L15.3617 15.7917C14.9245 15.7917 14.5701 15.4373 14.5701 15.0001L14.5701 3.91675C14.5701 3.47953 14.2156 3.12508 13.7784 3.12508Z" fill="white"/>
</svg>
