<svg width="86" height="56" viewBox="0 0 86 56" fill="none" xmlns="http://www.w3.org/2000/svg">
<path d="M48.6128 17.5709C49.6501 18.2543 51.332 18.2543 52.3693 17.5709L54.9181 15.8916L54.9181 39.6668C54.9181 40.6333 56.1074 41.4168 57.5744 41.4168C59.0414 41.4168 60.2306 40.6333 60.2306 39.6668L60.2306 15.8916L62.7795 17.5709C63.8168 18.2543 65.4986 18.2543 66.536 17.5709C67.5733 16.8874 67.5733 15.7794 66.536 15.096L59.4526 10.4293C58.4153 9.74589 56.7335 9.74589 55.6961 10.4293L48.6128 15.096C47.5755 15.7794 47.5755 16.8874 48.6128 17.5709Z" fill="black"/>
<path d="M31.8973 40.1085L34.4461 38.4293C35.4835 37.7459 37.1653 37.7459 38.2026 38.4293C39.24 39.1127 39.24 40.2208 38.2026 40.9042L31.1193 45.5709C30.082 46.2543 28.4001 46.2543 27.3628 45.5709L20.2795 40.9042C19.2421 40.2208 19.2421 39.1127 20.2795 38.4293C21.3168 37.7459 22.9986 37.7459 24.036 38.4293L26.5848 40.1085L26.5848 16.3334C26.5848 15.3669 27.774 14.5834 29.241 14.5834C30.7081 14.5834 31.8973 15.3669 31.8973 16.3334L31.8973 40.1085Z" fill="black"/>
</svg>
