<svg width="40" height="31" viewBox="0 0 40 31" fill="none" xmlns="http://www.w3.org/2000/svg">
<path d="M15.6851 18.386L15.6851 14.636" stroke="#0F0E0E" stroke-linecap="round"/>
<path d="M23.8369 18.386L23.8369 14.636" stroke="#0F0E0E" stroke-linecap="round"/>
<path d="M5.08691 8.38599L34.4347 8.38599L32.7282 8.38599C30.8426 8.38599 29.8998 8.38599 29.314 8.97177C28.7282 9.55756 28.7282 10.5004 28.7282 12.386L28.7282 20.636C28.7282 22.5216 28.7282 23.4644 28.1424 24.0502C27.5566 24.636 26.6138 24.636 24.7282 24.636L14.7934 24.636C12.9078 24.636 11.965 24.636 11.3792 24.0502C10.7934 23.4644 10.7934 22.5216 10.7934 20.636L10.7934 12.386C10.7934 10.5004 10.7934 9.55756 10.2076 8.97177C9.62186 8.38599 8.67905 8.38599 6.79343 8.38599L5.08691 8.38599Z" stroke="#0F0E0E" stroke-linecap="round"/>
<path d="M15.6847 4.63629C15.6847 4.63629 16.5 3.38599 19.7608 3.38599C23.0217 3.38599 23.8369 4.63599 23.8369 4.63599" stroke="#0F0E0E" stroke-linecap="round"/>
</svg>
