<svg width="25" height="24" viewBox="0 0 25 24" fill="none" xmlns="http://www.w3.org/2000/svg">
<path fill-rule="evenodd" clip-rule="evenodd" d="M11.5163 16.6272C10.7427 16.6272 10.0974 16.0359 10.0298 15.2653C9.8886 13.654 9.85285 12.0355 9.92271 10.4202C9.83839 10.4146 9.75407 10.4087 9.66977 10.4025L8.18022 10.294C7.22817 10.2246 6.69596 9.163 7.20995 8.35862C8.30614 6.6431 10.3154 4.72305 11.9688 3.53532C12.4526 3.18777 13.1043 3.18777 13.5881 3.53532C15.2415 4.72305 17.2508 6.6431 18.347 8.35861C18.861 9.163 18.3287 10.2246 17.3767 10.294L15.8871 10.4025C15.8028 10.4087 15.7185 10.4146 15.6342 10.4202C15.7041 12.0355 15.6683 13.654 15.5271 15.2653C15.4595 16.0359 14.8142 16.6272 14.0406 16.6272L11.5163 16.6272ZM11.4599 9.76244C11.3462 11.5497 11.3674 13.343 11.5235 15.1272L14.0334 15.1272C14.1895 13.343 14.2107 11.5497 14.097 9.76244C14.0842 9.56207 14.1524 9.36496 14.2861 9.21522C14.4198 9.06547 14.608 8.9756 14.8086 8.96573C15.1319 8.9498 15.4551 8.93006 15.7781 8.90652L16.8599 8.82766C15.9004 7.41436 14.6989 6.18011 13.3097 5.18226L12.7785 4.80062L12.2472 5.18226C10.8581 6.18011 9.65657 7.41436 8.69702 8.82766L9.77883 8.90652C10.1018 8.93006 10.425 8.9498 10.7483 8.96573C10.9489 8.97561 11.1371 9.06547 11.2708 9.21522C11.4046 9.36496 11.4727 9.56207 11.4599 9.76244Z" fill="white"/>
<path d="M6.52844 16.9999C6.52844 16.5857 6.19266 16.2499 5.77844 16.2499C5.36423 16.2499 5.02844 16.5857 5.02844 16.9999L5.02844 18.9999C5.02844 19.9664 5.81194 20.7499 6.77844 20.7499L18.7784 20.7499C19.7449 20.7499 20.5284 19.9664 20.5284 18.9999L20.5284 16.9999C20.5284 16.5857 20.1927 16.2499 19.7784 16.2499C19.3642 16.2499 19.0284 16.5857 19.0284 16.9999L19.0284 18.9999C19.0284 19.138 18.9165 19.2499 18.7784 19.2499L6.77844 19.2499C6.64037 19.2499 6.52844 19.138 6.52844 18.9999L6.52844 16.9999Z" fill="white"/>
</svg>
