<svg width="41" height="38" viewBox="0 0 41 38" fill="none" xmlns="http://www.w3.org/2000/svg">
<path d="M24.3904 6.33325L16.934 6.33325C11.6615 6.33325 9.02528 6.33325 7.38733 7.92324C5.74939 9.51323 5.74939 12.0723 5.74939 17.1904L5.74939 20.8094C5.74939 25.9275 5.74939 28.4866 7.38733 30.0766C9.02528 31.6666 11.6615 31.6666 16.934 31.6666L24.3904 31.6666C29.6628 31.6666 32.2991 31.6666 33.937 30.0766C35.575 28.4866 35.575 25.9275 35.575 20.8094L35.575 17.1904C35.575 12.0723 35.575 9.51323 33.937 7.92324C32.2991 6.33325 29.6628 6.33325 24.3904 6.33325Z" stroke="#CCD2E3" stroke-width="2"/>
<path d="M12.3773 12.6667L17.3482 12.6667" stroke="#CCD2E3" stroke-width="2" stroke-linecap="round"/>
<path d="M25.6331 23.3333L25.6331 20.9999C25.6331 20.0571 25.6331 19.5857 25.926 19.2928C26.2189 18.9999 26.6903 18.9999 27.6331 18.9999L33.575 18.9999C34.5178 18.9999 34.9892 18.9999 35.2821 19.2928C35.575 19.5857 35.575 20.0571 35.575 20.9999L35.575 23.3333C35.575 24.2761 35.575 24.7475 35.2821 25.0404C34.9892 25.3333 34.5178 25.3333 33.575 25.3333L27.6331 25.3333C26.6903 25.3333 26.2189 25.3333 25.926 25.0404C25.6331 24.7475 25.6331 24.2761 25.6331 23.3333Z" stroke="#CCD2E3" stroke-width="2"/>
</svg>
