<svg width="34" height="32" viewBox="0 0 34 32" fill="none" xmlns="http://www.w3.org/2000/svg">
<g opacity="0.4">
<path fill-rule="evenodd" clip-rule="evenodd" d="M25.7769 3.97082C25.7861 1.85626 27.5691 0.146877 29.7556 0.156357C31.9421 0.165837 33.7102 1.89062 33.701 4.00518C33.6919 6.11974 31.9089 7.82913 29.7224 7.81965C27.5358 7.81017 25.7678 6.08538 25.7769 3.97082ZM19.377 20.4L24.1523 14.4919L24.0864 14.5234C24.3509 14.1748 24.4021 13.7298 24.223 13.3316C24.0456 12.9333 23.6507 12.6613 23.2252 12.6277C22.78 12.5781 22.3371 12.7669 22.071 13.1156L18.0739 18.0747L13.535 14.589C13.2565 14.3811 12.9282 14.2986 12.5993 14.3305C12.2721 14.3768 11.9755 14.5488 11.7755 14.8023L6.88603 20.9039L6.78516 21.0466C6.50358 21.5525 6.63222 22.2049 7.12373 22.5584C7.3532 22.7025 7.5993 22.799 7.87869 22.8002C8.25825 22.8178 8.619 22.6269 8.85039 22.3274L12.9977 17.2084L17.6668 20.6327L17.8143 20.7271C18.339 20.9997 18.9969 20.8769 19.377 20.4ZM22.9371 2.95905C22.8696 3.35623 22.835 3.75356 22.8333 4.15102C22.8178 7.72824 25.7963 10.6332 29.4777 10.6491C29.8885 10.6509 30.2832 10.6065 30.6943 10.5447L30.6387 23.3734C30.6153 28.7647 27.3145 31.946 21.7268 31.9218L9.58337 31.8692C3.99399 31.8449 0.720949 28.635 0.744324 23.2438L0.795329 11.4803C0.818766 6.07475 4.11959 2.87746 9.70896 2.90169L22.9371 2.95905Z" fill="white"/>
</g>
</svg>
