<svg width="86" height="56" viewBox="0 0 86 56" fill="none" xmlns="http://www.w3.org/2000/svg">
<path d="M27.4818 12.2722C23.4286 12.5706 20.1843 14.6782 19.7153 17.3198C18.4556 24.4158 18.4556 31.5844 19.7153 38.6804C20.1843 41.322 23.4286 43.4295 27.4818 43.728C38.0247 44.5043 48.9318 44.5043 59.4747 43.728C63.5279 43.4295 66.7722 41.322 67.2412 38.6804C68.1463 33.5817 68.4011 28.4456 68.0055 23.3258C67.9953 23.1936 68.0703 23.0646 68.2123 22.971L71.8913 20.5472C72.3172 20.2666 73.0448 20.4421 73.09 20.8377C73.7843 26.9158 73.5935 33.0269 72.5177 39.087C71.7568 43.3732 66.5332 46.73 60.0648 47.2063C49.1297 48.0115 37.8268 48.0115 26.8917 47.2063C20.4233 46.73 15.1997 43.3732 14.4388 39.087C13.1311 31.7208 13.1311 24.2794 14.4388 16.9132C15.1997 12.627 20.4233 9.27012 26.8917 8.79383C37.8268 7.98865 49.1297 7.98865 60.0648 8.79383C62.343 8.96158 64.4667 9.48665 66.2955 10.2838C66.6554 10.4407 66.691 10.7739 66.3859 10.975L63.5424 12.8484C63.3098 13.0016 62.949 13.0274 62.6591 12.925C61.6908 12.5832 60.6147 12.3561 59.4747 12.2722C48.9318 11.4959 38.0247 11.4959 27.4818 12.2722Z" fill="black"/>
<path d="M75.4606 14.0708C76.4979 13.3874 76.4979 12.2794 75.4606 11.596C74.4233 10.9126 72.7414 10.9126 71.7041 11.596L41.7074 31.3585L32.9606 25.596C31.9233 24.9126 30.2414 24.9126 29.2041 25.596C28.1668 26.2794 28.1668 27.3874 29.2041 28.0709L39.8291 35.0709C40.8664 35.7543 42.5483 35.7543 43.5856 35.0709L75.4606 14.0708Z" fill="black"/>
</svg>
