<svg width="25" height="24" viewBox="0 0 25 24" fill="none" xmlns="http://www.w3.org/2000/svg">
<path d="M12.9604 21C11.7786 21 10.6082 20.7672 9.5163 20.3149C8.42437 19.8626 7.43221 19.1997 6.59649 18.364C5.76076 17.5282 5.09783 16.5361 4.64553 15.4442C4.19324 14.3522 3.96045 13.1819 3.96045 12C3.96045 10.8181 4.19324 9.64778 4.64553 8.55585C5.09783 7.46392 5.76076 6.47177 6.59649 5.63604C7.43222 4.80031 8.42437 4.13738 9.5163 3.68508C10.6082 3.23279 11.7786 3 12.9605 3C14.1423 3 15.3127 3.23279 16.4046 3.68508C17.4965 4.13738 18.4887 4.80031 19.3244 5.63604C20.1601 6.47177 20.8231 7.46392 21.2754 8.55585C21.7277 9.64778 21.9604 10.8181 21.9604 12C21.9604 13.1819 21.7277 14.3522 21.2754 15.4442C20.8231 16.5361 20.1601 17.5282 19.3244 18.364C18.4887 19.1997 17.4965 19.8626 16.4046 20.3149C15.3127 20.7672 14.1423 21 12.9604 21L12.9604 21Z" stroke="#1A202C" stroke-width="2" stroke-linecap="round"/>
<path d="M9.96045 9L15.9604 15" stroke="#1A202C" stroke-width="2" stroke-linecap="round"/>
<path d="M15.9604 9L9.96045 15" stroke="#1A202C" stroke-width="2" stroke-linecap="round"/>
</svg>
