<svg width="25" height="24" viewBox="0 0 25 24" fill="none" xmlns="http://www.w3.org/2000/svg">
<path d="M13.2784 7.5L6.70663 14.0718C6.4941 14.2843 6.38784 14.3906 6.31797 14.5212C6.2481 14.6517 6.21863 14.7991 6.15968 15.0938L5.42553 18.7646C5.35901 19.0972 5.32575 19.2635 5.42035 19.3581C5.51496 19.4527 5.68127 19.4194 6.01388 19.3529L9.68465 18.6188C9.97938 18.5598 10.1267 18.5303 10.2573 18.4605C10.3878 18.3906 10.4941 18.2843 10.7066 18.0718L17.2784 11.5L13.2784 7.5Z" fill="#7E869E" fill-opacity="0.25"/>
<path d="M6.7324 19.38L6.73242 19.38L6.75855 19.3734L6.75856 19.3734L9.38654 18.7164C9.40273 18.7124 9.41887 18.7084 9.43498 18.7044C9.65375 18.65 9.86406 18.5978 10.0555 18.4894C10.247 18.381 10.4 18.2275 10.5591 18.0679C10.5709 18.0561 10.5826 18.0444 10.5944 18.0325L17.7885 10.8385L17.7885 10.8385L17.8153 10.8117C18.1257 10.5014 18.3999 10.2272 18.5912 9.97638C18.7986 9.70457 18.9642 9.39104 18.9642 9C18.9642 8.60896 18.7986 8.29543 18.5912 8.02361C18.3999 7.77285 18.1257 7.49863 17.8153 7.18835L17.7885 7.16152L17.6169 6.98995L17.5901 6.96314C17.2798 6.6528 17.0056 6.37853 16.7548 6.1872C16.483 5.97981 16.1695 5.81421 15.7784 5.81421C15.3874 5.81421 15.0739 5.97981 14.8021 6.1872C14.5513 6.37853 14.2771 6.65278 13.9668 6.96311L13.94 6.98995L6.74589 14.184C6.73409 14.1958 6.72231 14.2076 6.71055 14.2193C6.55093 14.3785 6.39748 14.5315 6.28909 14.7229C6.18069 14.9144 6.12843 15.1247 6.07406 15.3435C6.07006 15.3596 6.06605 15.3757 6.062 15.3919L5.39847 18.046C5.39606 18.0557 5.39362 18.0654 5.39116 18.0752C5.35255 18.2293 5.30888 18.4035 5.29438 18.5518C5.27822 18.7169 5.27971 19.0162 5.52099 19.2574C5.76228 19.4987 6.06151 19.5002 6.22663 19.4841C6.3749 19.4696 6.54916 19.4259 6.70323 19.3873C6.71304 19.3848 6.72277 19.3824 6.7324 19.38Z" stroke="#CCD2E3" stroke-width="1.2"/>
<path d="M13.2784 7.5L17.2784 11.5" stroke="#CCD2E3" stroke-width="1.2"/>
</svg>
