<svg width="86" height="56" viewBox="0 0 86 56" fill="none" xmlns="http://www.w3.org/2000/svg">
<mask id="path-1-outside-1_61_414" maskUnits="userSpaceOnUse" x="16.5049" y="12" width="50" height="35" fill="black">
<rect fill="white" x="16.5049" y="12" width="50" height="35"/>
<path d="M52.8212 14.7249L22.5867 34.6442C22.3188 34.8206 22.1849 34.9088 22.0863 35.0319C21.9878 35.1549 21.9309 35.3049 21.8171 35.6047L18.813 43.5215C18.6761 43.8822 18.6076 44.0625 18.6992 44.1744C18.7907 44.2863 18.981 44.2549 19.3617 44.1922L19.3617 44.1922L32.2516 42.0692C32.4608 42.0347 32.5654 42.0175 32.6634 41.9792C32.7614 41.9408 32.8499 41.8825 33.0269 41.7659L33.0269 41.7659L62.0115 22.6701C63.1564 21.9158 63.7289 21.5387 63.7289 21C63.7289 20.4613 63.1564 20.0842 62.0115 19.3299L55.0219 14.7249C54.4882 14.3733 54.2214 14.1975 53.9216 14.1975C53.6217 14.1975 53.3549 14.3733 52.8212 14.7249Z"/>
</mask>
<path d="M22.5867 34.6442L23.687 36.3143H23.687L22.5867 34.6442ZM52.8212 14.7249L53.9216 16.395L53.9216 16.395L52.8212 14.7249ZM55.0219 14.7249L56.1222 13.0548V13.0548L55.0219 14.7249ZM62.0115 19.3299L63.1119 17.6598V17.6598L62.0115 19.3299ZM62.0115 22.6701L60.9112 21L62.0115 22.6701ZM33.0269 41.7659L33.7697 43.6228L33.9579 43.5475L34.1272 43.436L33.0269 41.7659ZM21.8171 35.6047L19.9472 34.8952L19.9472 34.8952L21.8171 35.6047ZM18.813 43.5215L16.9431 42.8119L18.813 43.5215ZM19.3617 44.1922L19.3617 46.1922L19.5253 46.1922L19.6867 46.1656L19.3617 44.1922ZM32.2516 42.0692L32.5767 44.0426L32.5767 44.0426L32.2516 42.0692ZM18.6992 44.1744L17.1512 45.4408L17.1512 45.4408L18.6992 44.1744ZM19.3617 44.1922L19.3617 42.1922L19.1981 42.1922L19.0366 42.2188L19.3617 44.1922ZM33.0269 41.7659L32.2841 39.9089L32.0959 39.9842L31.9266 40.0958L33.0269 41.7659ZM32.6634 41.9792L33.392 43.8417L33.392 43.8417L32.6634 41.9792ZM23.687 36.3143L53.9216 16.395L51.7209 13.0548L21.4863 32.974L23.687 36.3143ZM53.9216 16.395L60.9112 21L63.1119 17.6598L56.1222 13.0548L53.9216 16.395ZM60.9112 21L31.9266 40.0958L34.1272 43.436L63.1119 24.3402L60.9112 21ZM19.9472 34.8952L16.9431 42.8119L20.6829 44.231L23.687 36.3143L19.9472 34.8952ZM19.6867 46.1656L32.5767 44.0426L31.9266 40.0958L19.0367 42.2188L19.6867 46.1656ZM16.9431 42.8119C16.8986 42.9291 16.7787 43.2301 16.7166 43.514C16.6507 43.8151 16.5178 44.6666 17.1512 45.4408L20.2471 42.908C20.4922 43.2076 20.6122 43.5475 20.6465 43.8519C20.6762 44.1158 20.637 44.31 20.6242 44.3685C20.6101 44.4333 20.5979 44.4618 20.6127 44.4194C20.6263 44.3804 20.6458 44.3287 20.6829 44.231L16.9431 42.8119ZM19.3617 42.1922L19.3617 42.1922L19.3617 46.1922L19.3617 46.1922L19.3617 42.1922ZM19.0366 42.2188C18.9335 42.2358 18.879 42.2446 18.8381 42.2502C18.7936 42.2564 18.824 42.2501 18.8903 42.249C18.9502 42.2481 19.1483 42.2481 19.4011 42.3296C19.6926 42.4235 20.0021 42.6084 20.2471 42.908L17.1512 45.4408C17.7846 46.215 18.6455 46.2534 18.9537 46.2485C19.2443 46.2439 19.563 46.186 19.6867 46.1656L19.0366 42.2188ZM32.2841 39.9089L32.2841 39.9089L33.7697 43.6228L33.7697 43.6228L32.2841 39.9089ZM31.9266 40.0958C31.9041 40.1106 31.8849 40.1232 31.8672 40.1348C31.8496 40.1464 31.8351 40.1558 31.8227 40.1639C31.8103 40.1719 31.8014 40.1776 31.7948 40.1817C31.7917 40.1837 31.7893 40.1852 31.7877 40.1861C31.7861 40.1871 31.7854 40.1876 31.7855 40.1875C31.7855 40.1875 31.7894 40.1852 31.7963 40.1813C31.8034 40.1773 31.8139 40.1716 31.8274 40.1647C31.8411 40.1577 31.8573 40.1498 31.8759 40.1414C31.8945 40.133 31.9142 40.1246 31.9348 40.1166L33.392 43.8417C33.7307 43.7092 34.0176 43.5082 34.1273 43.436L31.9266 40.0958ZM32.5767 44.0426C32.7062 44.0212 33.0533 43.9742 33.392 43.8417L31.9348 40.1166C31.9553 40.1086 31.9755 40.1013 31.9949 40.0949C32.0142 40.0884 32.0315 40.0832 32.0462 40.0791C32.0609 40.075 32.0725 40.072 32.0803 40.0702C32.0881 40.0683 32.0925 40.0674 32.0925 40.0674C32.0926 40.0674 32.0918 40.0676 32.0899 40.0679C32.0881 40.0683 32.0854 40.0688 32.0817 40.0695C32.0741 40.0709 32.0636 40.0728 32.0491 40.0753C32.0345 40.0778 32.0175 40.0807 31.9967 40.0842C31.9758 40.0877 31.9532 40.0914 31.9266 40.0958L32.5767 44.0426ZM60.9112 21C61.2042 21.193 61.43 21.342 61.6181 21.4733C61.8086 21.6062 61.9117 21.6877 61.9665 21.7368C62.024 21.7882 61.9662 21.7496 61.8932 21.6242C61.8033 21.4699 61.7289 21.2503 61.7289 21L65.7289 21C65.7289 19.8876 65.0838 19.1582 64.6326 18.7548C64.2098 18.3768 63.6291 18.0005 63.1119 17.6598L60.9112 21ZM63.1119 24.3402C63.6291 23.9995 64.2098 23.6232 64.6326 23.2452C65.0838 22.8418 65.7289 22.1124 65.7289 21L61.7289 21C61.7289 20.7497 61.8033 20.5301 61.8932 20.3758C61.9662 20.2504 62.024 20.2118 61.9665 20.2632C61.9117 20.3123 61.8086 20.3938 61.6181 20.5267C61.43 20.658 61.2042 20.807 60.9112 21L63.1119 24.3402ZM53.9216 16.395C54.06 16.3038 54.1579 16.2394 54.2414 16.1868C54.3248 16.1344 54.3623 16.1138 54.3739 16.1079C54.3834 16.103 54.3395 16.1268 54.257 16.1508C54.2143 16.1633 54.1627 16.1753 54.1036 16.1841C54.0441 16.1929 53.983 16.1975 53.9216 16.1975L53.9216 12.1975C53.34 12.1975 52.8763 12.3801 52.5443 12.5508C52.2554 12.6994 51.9517 12.9027 51.7209 13.0548L53.9216 16.395ZM56.1222 13.0548C55.8914 12.9027 55.5877 12.6994 55.2988 12.5508C54.9668 12.3801 54.5031 12.1975 53.9216 12.1975L53.9216 16.1975C53.8601 16.1975 53.799 16.1929 53.7395 16.1841C53.6804 16.1753 53.6288 16.1633 53.5861 16.1508C53.5036 16.1268 53.4597 16.103 53.4692 16.1079C53.4808 16.1138 53.5183 16.1344 53.6017 16.1868C53.6852 16.2394 53.7831 16.3038 53.9216 16.395L56.1222 13.0548ZM21.4863 32.974C21.3229 33.0817 20.8667 33.3555 20.5255 33.7814L23.6472 36.2824C23.6266 36.3081 23.6056 36.3323 23.5845 36.3547C23.5636 36.3771 23.5441 36.3961 23.5272 36.4118C23.4942 36.4424 23.4723 36.4586 23.4735 36.4577C23.4738 36.4575 23.4781 36.4543 23.4879 36.4474C23.4977 36.4405 23.5112 36.4312 23.5299 36.4185C23.5486 36.4059 23.5704 36.3913 23.5971 36.3736C23.6239 36.3558 23.653 36.3367 23.687 36.3143L21.4863 32.974ZM23.687 36.3143C23.7014 36.2762 23.7138 36.2437 23.7253 36.2136C23.7367 36.1838 23.7462 36.1592 23.7544 36.1382C23.7627 36.1172 23.7688 36.102 23.7735 36.0909C23.7781 36.0799 23.7802 36.075 23.7804 36.0746C23.781 36.0733 23.7699 36.0982 23.7473 36.1371C23.7357 36.157 23.7214 36.1801 23.7041 36.2055C23.6868 36.2309 23.6678 36.2567 23.6472 36.2824L20.5255 33.7814C20.1843 34.2072 20.0166 34.7122 19.9472 34.8952L23.687 36.3143Z" fill="black" mask="url(#path-1-outside-1_61_414)"/>
<path d="M45.0674 17.4999L55.6924 12.8333L66.3174 19.8333L59.234 26.8333L45.0674 17.4999Z" fill="black"/>
</svg>
