<svg width="35" height="34" viewBox="0 0 35 34" fill="none" xmlns="http://www.w3.org/2000/svg">
<g opacity="0.4">
<path fill-rule="evenodd" clip-rule="evenodd" d="M31.3345 15.3906C31.1436 15.568 30.8853 15.6687 30.6138 15.6675C29.6092 15.6631 28.7913 16.4232 28.7873 17.3522C28.7833 18.2876 29.585 19.0509 30.58 19.0654C31.1407 19.0729 31.6156 19.4415 31.6133 19.9671L31.5991 23.2314C31.5872 25.979 29.2019 28.1971 26.2696 28.1844L21.844 28.1652C21.3865 28.1633 21.0174 27.8142 21.0192 27.3853L21.0312 24.6364C21.0335 24.1019 20.5873 23.68 20.0171 23.6775C19.4605 23.6751 18.9972 24.0931 18.9948 24.6276L18.9829 27.3765C18.9811 27.8054 18.6089 28.1512 18.1528 28.1492L8.81156 28.1087C5.89284 28.0961 3.51322 25.8586 3.52514 23.1097L3.53929 19.8453C3.54157 19.3197 4.01966 18.9553 4.58035 18.9526C5.57683 18.9468 6.38379 18.1905 6.38784 17.2551C6.39176 16.3515 5.60736 15.6609 4.57563 15.6564C4.30412 15.6552 4.04663 15.5523 3.85735 15.3733C3.66806 15.1943 3.56051 14.952 3.56161 14.6975L3.5759 11.4014C3.5878 8.65754 5.99224 6.42298 8.9191 6.43567L18.2468 6.47611C18.7029 6.47809 19.072 6.82713 19.0702 7.25601L19.056 10.514C19.0538 11.0358 19.5135 11.4705 20.0701 11.4729C20.6402 11.4753 21.0901 11.0446 21.0924 10.5228L21.1065 7.26484C21.1083 6.83596 21.4805 6.49013 21.9379 6.49212L26.3635 6.51131C29.2958 6.52402 31.6619 8.76145 31.65 11.5104L31.6361 14.7174C31.6349 14.9719 31.5253 15.2133 31.3345 15.3906ZM20.0284 21.2085C20.5987 21.211 21.0487 20.7802 21.051 20.2584L21.0731 15.1679C21.0753 14.6461 20.6291 14.2114 20.0587 14.209C19.5019 14.2065 19.0383 14.6372 19.0361 15.159L19.014 20.2496C19.0117 20.7714 19.4716 21.2061 20.0284 21.2085Z" fill="white"/>
</g>
</svg>
