<svg width="86" height="56" viewBox="0 0 86 56" fill="none" xmlns="http://www.w3.org/2000/svg">
<path fill-rule="evenodd" clip-rule="evenodd" d="M25.9542 18.1023L27.1692 25.3066L24.7105 25.436C21.2818 25.6163 18.4821 27.3143 17.9263 29.5506C16.6453 34.7047 16.6453 39.9618 17.9263 45.1159C18.4821 47.3522 21.2818 49.0502 24.7105 49.2305L30.0093 49.5092C38.3752 49.9492 46.7811 49.9492 55.147 49.5092L60.4458 49.2305C63.8744 49.0502 66.6741 47.3522 67.2299 45.1159C68.5109 39.9618 68.5109 34.7047 67.2299 29.5506C66.6741 27.3143 63.8744 25.6163 60.4458 25.436L57.9867 25.3066L59.2017 18.1023C59.3449 17.253 59.3449 16.3959 59.2017 15.5466L59.1211 15.0685C58.2658 9.9973 52.2145 5.98476 44.5228 5.38859C43.2307 5.28844 41.9252 5.28844 40.6331 5.38859C32.9414 5.98476 26.8901 9.9973 26.0348 15.0685L25.9542 15.5466C25.811 16.3959 25.811 17.253 25.9542 18.1023ZM43.902 8.86461C43.0223 8.79643 42.1335 8.79643 41.2538 8.86461C36.017 9.27051 31.8971 12.0024 31.3148 15.4551L31.2342 15.9331C31.1343 16.5255 31.1343 17.1234 31.2342 17.7158L32.4695 25.0406C39.2016 24.7562 45.9543 24.7561 52.6864 25.0406L53.9217 17.7158C54.0216 17.1234 54.0216 16.5255 53.9217 15.9331L53.8411 15.4551C53.2588 12.0024 49.1388 9.27051 43.902 8.86461ZM42.578 33.8333C39.644 33.8333 37.2655 35.4003 37.2655 37.3333C37.2655 39.2662 39.644 40.8333 42.578 40.8333C45.512 40.8333 47.8905 39.2662 47.8905 37.3333C47.8905 35.4003 45.512 33.8333 42.578 33.8333Z" fill="black"/>
</svg>
