<svg width="25" height="24" viewBox="0 0 25 24" fill="none" xmlns="http://www.w3.org/2000/svg">
<path fill-rule="evenodd" clip-rule="evenodd" d="M21.7784 12C21.7784 16.9706 17.749 21 12.7784 21C7.80788 21 3.77844 16.9706 3.77844 12C3.77844 7.02944 7.80788 3 12.7784 3C17.749 3 21.7784 7.02944 21.7784 12ZM12.7784 18C12.2262 18 11.7784 17.5523 11.7784 17L11.7784 13L7.77844 13C7.22616 13 6.77844 12.5523 6.77844 12C6.77844 11.4477 7.22616 11 7.77844 11L11.7784 11L11.7784 7C11.7784 6.44772 12.2262 6 12.7784 6C13.3307 6 13.7784 6.44772 13.7784 7L13.7784 11L17.7784 11C18.3307 11 18.7784 11.4477 18.7784 12C18.7784 12.5523 18.3307 13 17.7784 13L13.7784 13L13.7784 17C13.7784 17.5523 13.3307 18 12.7784 18Z" fill="white"/>
</svg>
