<svg width="85" height="56" viewBox="0 0 85 56" fill="none" xmlns="http://www.w3.org/2000/svg">
<path fill-rule="evenodd" clip-rule="evenodd" d="M74.375 14L10.625 14L10.625 21L13.7083 21C15.594 21 16.5368 21 17.1225 21.5858C17.7083 22.1716 17.7083 23.1144 17.7083 25L17.7083 43C17.7083 45.8284 17.7083 47.2426 18.587 48.1213C19.4657 49 20.8799 49 23.7083 49L61.2917 49C64.1201 49 65.5343 49 66.413 48.1213C67.2917 47.2426 67.2917 45.8284 67.2917 43L67.2917 25C67.2917 23.1144 67.2917 22.1716 67.8775 21.5858C68.4632 21 69.4061 21 71.2917 21L74.375 21L74.375 14ZM34.6458 25.6667C34.6458 25.1144 34.1981 24.6667 33.6458 24.6667C33.0935 24.6667 32.6458 25.1144 32.6458 25.6667L32.6458 37.3333C32.6458 37.8856 33.0935 38.3333 33.6458 38.3333C34.1981 38.3333 34.6458 37.8856 34.6458 37.3333L34.6458 25.6667ZM52.3542 25.6667C52.3542 25.1144 51.9065 24.6667 51.3542 24.6667C50.8019 24.6667 50.3542 25.1144 50.3542 25.6667L50.3542 37.3333C50.3542 37.8856 50.8019 38.3333 51.3542 38.3333C51.9065 38.3333 52.3542 37.8856 52.3542 37.3333L52.3542 25.6667Z" fill="black"/>
<path d="M35.6577 7.86471C36.0613 7.61664 36.9506 7.39743 38.1876 7.24109C39.4247 7.08474 40.9404 7 42.4997 7C44.059 7 45.5747 7.08474 46.8117 7.24109C48.0488 7.39743 48.9381 7.61664 49.3416 7.86471" stroke="black" stroke-width="2" stroke-linecap="round"/>
</svg>
